<svg width="105" height="66" viewBox="0 0 105 66" fill="none" xmlns="http://www.w3.org/2000/svg">
<path d="M24.6787 57.6497V39.2965H10.3104V57.6497H24.6787ZM20.8579 53.9759H14.1312V50.3074H20.857L20.8579 53.9759ZM14.1189 43.0052H20.8446V46.638H14.1189V43.0052ZM57.336 3.01543L62.6331 8.32361H54.9358V30.4043L52.2903 33.0695L49.6449 30.4043V8.32897H41.9529L47.2209 3.02079L57.336 3.01543ZM47.1097 20.4948L49.5628 22.9664L45.922 26.6528L41.9529 22.654V10.4863H47.1097V20.4948ZM57.471 10.4712H62.6049V22.6549L58.6358 26.6537L54.9949 22.9673L57.448 20.4966L57.471 10.4712ZM58.5061 0.149353H46.0561L39.108 7.15611V23.851L52.2912 37.1094L65.4727 23.8518V7.15522L58.5061 0.149353ZM64.0379 23.244L52.2903 35.093L40.5304 23.244V7.73986L46.642 1.58105H57.921L64.0494 7.73986L64.0379 23.244ZM58.0728 49.3693H61.6315V57.6256H74.3039V49.3693H77.9977V45.8311H74.3039V39.2965H69.7497V45.848H66.1733V39.2965H61.6315V45.848H58.0728V39.2965H53.4957V45.848H52.4297V49.3871H53.4957V64.3968H76.2646V60.5337H58.0728V49.3693ZM66.1733 49.3693H69.7497V53.3029H66.1733V49.3693ZM102.746 51.05V39.2965H79.0918V51.05H85.1037C84.6413 51.5632 83.09 52.371 82.4874 52.82C81.0019 53.9302 79.3929 54.8603 77.6932 55.5915C78.4069 56.6278 78.9964 57.7464 79.4492 58.9235C81.659 58.0174 83.7538 56.8473 85.6888 55.4379V57.2079C85.6888 58.387 85.0331 59.1948 83.991 59.9089C82.9497 60.6229 81.9659 60.9407 79.7536 61.678C80.6316 63.1641 80.9767 63.7595 81.8785 65.5C85.5599 64.2022 86.8535 63.2998 88.2583 61.719C89.7805 59.991 89.9561 58.5227 89.9561 56.4644V52.9905H88.5045C89.0613 52.3805 89.5756 51.7321 90.0435 51.05H92.3854C93.0463 51.7284 93.6614 52.3353 94.34 52.9905H92.8822V64.4325H97.5122V55.7209C99.0601 56.9048 100.696 57.9657 102.406 58.894C102.97 57.5495 103.673 56.2687 104.502 55.0729C102.246 53.9929 100.131 52.6361 98.2031 51.033L102.746 51.05ZM88.4101 47.9956H83.6054V46.3916H88.4101V47.9956ZM88.4101 43.9968H83.6054V42.3929H88.4101V43.9968ZM93.0931 42.3991H98.2208V43.9968H93.0931V42.3991ZM93.0931 47.9956V46.3916H98.2208V47.9956H93.0931ZM48.5197 57.0133C48.6018 57.5614 48.6177 58.1175 48.5665 58.67C48.5642 59.2855 48.4178 59.8917 48.1394 60.4391C47.6736 60.7721 47.1122 60.9403 46.5423 60.9175H46.1081C45.4883 61.0028 44.8598 60.8443 44.3521 60.4748C44.1242 60.126 44.0134 59.7122 44.0362 59.2948V55.5915H49.3977V45.8489H41.3263V44.6689H52.2771V40.8719H41.3263V39.043H36.7837V40.871H25.8153V44.6805H36.7837V45.8605H28.7184V55.5906H33.9396C33.803 56.8971 33.2383 58.12 32.3354 59.0645C30.8027 60.3275 28.9398 61.1121 26.9739 61.3227C27.6004 62.1019 29.6193 64.7618 29.7535 64.968C31.4221 64.4191 33.8161 63.423 35.2624 61.919C36.8868 60.2002 37.8679 57.9623 38.0367 55.5906H40.278V59.7188C40.278 60.3087 40.278 62.5554 41.8999 63.6943C43.1068 64.409 44.4878 64.7665 45.8857 64.7261H46.6358C47.4838 64.7261 49.4039 64.6137 50.7328 63.3462C51.8041 62.326 52.1959 60.2971 52.3247 58.628C51.985 58.5334 51.3885 58.2862 50.4046 57.9264C49.7502 57.6802 49.1193 57.3752 48.5197 57.0133ZM32.804 51.9649V49.5228H45.336V51.9649H32.804ZM9.54885 60.4926H25.6044V64.3263H8.07346V61.4593C7.48842 61.6958 1.43595 63.8184 0.516476 63.9719L0.130859 60.1151C1.09114 59.8801 2.03867 59.5947 2.96958 59.26V50.3065H0.516476V46.638H2.96341V39.0305H6.95544V46.6389H9.37855V50.3074H6.96074V57.656C7.8043 57.2742 8.6202 56.8328 9.40237 56.335C9.42002 57.7328 9.52591 60.091 9.54885 60.4926Z" fill="#F9F5E1"/>
</svg>
